<?xml version="1.0" encoding="UTF-8" standalone="no"?>
<!-- Created with Inkscape (http://www.inkscape.org/) -->
<svg
   xmlns:dc="http://purl.org/dc/elements/1.1/"
   xmlns:cc="http://creativecommons.org/ns#"
   xmlns:rdf="http://www.w3.org/1999/02/22-rdf-syntax-ns#"
   xmlns:svg="http://www.w3.org/2000/svg"
   xmlns="http://www.w3.org/2000/svg"
   xmlns:xlink="http://www.w3.org/1999/xlink"
   xmlns:sodipodi="http://sodipodi.sourceforge.net/DTD/sodipodi-0.dtd"
   xmlns:inkscape="http://www.inkscape.org/namespaces/inkscape"
   width="160"
   height="80"
   id="svg2"
   sodipodi:version="0.32"
   inkscape:version="0.46"
   version="1.0"
   sodipodi:docname="logo LI banner.svg"
   inkscape:output_extension="org.inkscape.output.svg.inkscape"
   inkscape:export-filename="C:\SITI\TOYOTA\DCS\images\logo LI banner.png"
   inkscape:export-xdpi="90"
   inkscape:export-ydpi="90">
  <defs
     id="defs4">
    <inkscape:perspective
       sodipodi:type="inkscape:persp3d"
       inkscape:vp_x="0 : 526.18109 : 1"
       inkscape:vp_y="0 : 1000 : 0"
       inkscape:vp_z="744.09448 : 526.18109 : 1"
       inkscape:persp3d-origin="372.04724 : 350.78739 : 1"
       id="perspective10" />
    <inkscape:perspective
       id="perspective2447"
       inkscape:persp3d-origin="372.04724 : 350.78739 : 1"
       inkscape:vp_z="744.09448 : 526.18109 : 1"
       inkscape:vp_y="0 : 1000 : 0"
       inkscape:vp_x="0 : 526.18109 : 1"
       sodipodi:type="inkscape:persp3d" />
  </defs>
  <sodipodi:namedview
     id="base"
     pagecolor="#ffffff"
     bordercolor="#666666"
     borderopacity="1.0"
     inkscape:pageopacity="0.0"
     inkscape:pageshadow="2"
     inkscape:zoom="3.959798"
     inkscape:cx="88.803369"
     inkscape:cy="17.285065"
     inkscape:document-units="px"
     inkscape:current-layer="layer1"
     showgrid="false"
     inkscape:window-width="1440"
     inkscape:window-height="828"
     inkscape:window-x="-4"
     inkscape:window-y="-4" />
  <metadata
     id="metadata7">
    <rdf:RDF>
      <cc:Work
         rdf:about="">
        <dc:format>image/svg+xml</dc:format>
        <dc:type
           rdf:resource="http://purl.org/dc/dcmitype/StillImage" />
      </cc:Work>
    </rdf:RDF>
  </metadata>
  <g
     inkscape:label="Livello 1"
     inkscape:groupmode="layer"
     id="layer1">
    <image
       y="144.28607"
       x="-240.78244"
       id="image2449"
       height="249"
       width="709"
       sodipodi:absref="C:\PROGETTI\Logica\LOGHI\logo LI_fot_100%.tif"
       xlink:href="C:\PROGETTI\Logica\LOGHI\logo LI_fot_100%.tif" />
    <g
       id="g2406"
       transform="matrix(0.8493466,0,0,0.8493466,14.971024,5.9738141)">
      <path
         sodipodi:nodetypes="cccccccccc"
         id="rect2455"
         d="M 67.378508,1.1629903 L 131.36935,1.1629903 C 135.0129,1.1629903 137.94615,4.1304322 137.94615,7.8164471 L 137.94615,71.294021 C 137.94615,74.980038 135.0129,77.947476 131.36935,77.947476 L 86.753415,77.947476 C 83.109873,74.710657 63.467977,55.199492 60.801706,52.772237 L 60.801706,52.558085 L 60.801706,7.8164471 C 60.801706,4.1304322 63.734965,1.1629903 67.378508,1.1629903 z"
         style="fill:#0967ad;fill-opacity:1;stroke:none;stroke-width:1;stroke-linecap:round;stroke-miterlimit:4;stroke-opacity:1" />
      <path
         transform="matrix(0.7689891,0,0,0.7355548,-105.81963,-12.01528)"
         d="M 297.23738,39.972706 A 8.3337584,8.7125654 0 1 1 280.56987,39.972706 A 8.3337584,8.7125654 0 1 1 297.23738,39.972706 z"
         sodipodi:ry="8.7125654"
         sodipodi:rx="8.3337584"
         sodipodi:cy="39.972706"
         sodipodi:cx="288.90363"
         id="path3227"
         style="fill:#ffffff;fill-opacity:1;stroke:none;stroke-width:1;stroke-linecap:round;stroke-miterlimit:4;stroke-dasharray:none;stroke-opacity:1"
         sodipodi:type="arc" />
      <rect
         ry="5.4150519"
         y="10.978268"
         x="79.143677"
         height="55.745178"
         width="12.587854"
         id="rect3229"
         style="fill:#ffffff;fill-opacity:1;stroke:none;stroke-width:1;stroke-linecap:round;stroke-miterlimit:4;stroke-dasharray:none;stroke-opacity:1" />
      <rect
         style="fill:#ffffff;fill-opacity:1;stroke:none;stroke-width:1;stroke-linecap:round;stroke-miterlimit:4;stroke-dasharray:none;stroke-opacity:1"
         id="rect3233"
         width="12.81714"
         height="38.841805"
         x="110.05019"
         y="28.241291"
         ry="5.7555079" />
      <path
         sodipodi:nodetypes="cssssssccccc"
         id="rect3242"
         d="M 101.04635,59.938658 L 107.25478,53.942124 C 107.75637,53.457651 109.38641,52.954673 109.67044,53.591567 C 109.67044,53.591567 110.17684,54.997201 110.53181,55.523069 C 112.40639,58.300133 117.01288,62.324579 119.78371,65.59989 C 120.14555,66.027624 121.14372,66.427916 121.49799,66.799142 C 123.45361,68.848338 124.52571,70.011454 124.52571,70.011454 C 125.01018,70.513042 124.99641,71.306874 124.49481,71.791347 L 118.28639,77.787881 C 117.7848,78.272349 116.99097,78.258562 116.5065,77.756975 L 101.01546,61.718546 C 100.53099,61.216953 100.54477,60.423126 101.04635,59.938658 z"
         style="fill:#0967ad;fill-opacity:1;stroke:none;stroke-width:1;stroke-linecap:round;stroke-miterlimit:4;stroke-opacity:1" />
      <rect
         style="fill:#0967ad;fill-opacity:1;stroke:none;stroke-width:1;stroke-linecap:round;stroke-miterlimit:4;stroke-dasharray:none;stroke-opacity:1"
         id="rect3244"
         width="11.149033"
         height="24.815586"
         x="4.5146227"
         y="88.520142"
         ry="1.2587619"
         transform="matrix(0.6958772,-0.7181608,0.7181608,0.6958772,0,0)" />
      <path
         sodipodi:type="arc"
         style="fill:#ffffff;fill-opacity:1;stroke:none;stroke-width:1;stroke-linecap:round;stroke-miterlimit:4;stroke-dasharray:none;stroke-opacity:1"
         id="path3238"
         sodipodi:cx="288.90363"
         sodipodi:cy="39.972706"
         sodipodi:rx="8.3337584"
         sodipodi:ry="8.7125654"
         d="M 297.23738,39.972706 A 8.3337584,8.7125654 0 1 1 280.56987,39.972706 A 8.3337584,8.7125654 0 1 1 297.23738,39.972706 z"
         transform="matrix(0.7689891,0,0,0.7355548,-121.10459,29.300667)" />
    </g>
  </g>
</svg>
